<svg width="42" height="48" xmlns="http://www.w3.org/2000/svg"><g fill="none"><path d="M30 0H6.125C2.742 0 0 2.686 0 6v36c0 3.314 2.742 6 6.125 6h29.75C39.258 48 42 45.314 42 42V12L30 0z" fill="#7278D3"/><path d="M17.266 29.818c1.996 0 3.295-.615 3.896-1.845h0v-3.159h-4.266v1.436h2.584v1.23c-.437.602-1.162.903-2.173.903-1.532-.11-2.338-1.094-2.42-2.953.11-1.805.875-2.776 2.297-2.912 1.093 0 1.832.423 2.214 1.271h0l1.641-.615c-.602-1.45-1.9-2.174-3.896-2.174-2.625.137-4.006 1.6-4.143 4.389.11 2.816 1.531 4.293 4.266 4.43zm12.027-.123v-1.353H23.92l5.21-5.783v-1.436h-6.932V22.6h4.634l-5.086 5.783v1.312h7.547z" stroke="#FFF" stroke-width=".2" fill="#FFF"/><path d="M30 6a6 6 0 006 6h6L30 0v6z" fill="#C8CAEF"/></g></svg>