<svg width="42" height="48" xmlns="http://www.w3.org/2000/svg"><g fill="none"><path d="M30 0H6.125C2.742 0 0 2.686 0 6v36c0 3.314 2.742 6 6.125 6h29.75C39.258 48 42 45.314 42 42V12L30 0z" fill="#A186C9"/><path d="M6.805 29.572v-3.527h3.937v3.527h1.805V21h-1.805v3.527H6.805V21H5v8.572h1.805zm11.125 0v-7.095h2.83V21h-7.465v1.477h2.871v7.095h1.764zm5.22 0V24.65c0-.629-.028-1.353-.083-2.173h0l.041-.041c.028.109.096.341.205.697.082.355.137.601.164.738.082.3.67 2.201 1.764 5.701H26.8c1.011-3.39 1.558-5.277 1.64-5.66.11-.328.233-.82.37-1.476a21.34 21.34 0 00-.083 1.927h0v5.21h1.805V21h-2.789a1591.33 1591.33 0 01-1.559 5.783.671.671 0 01-.04.164c-.083.383-.124.643-.124.78h0-.04c0-.22-.042-.534-.124-.944-.054-.164-.615-2.092-1.681-5.783h0-2.666v8.572h1.64zm15.062 0V28.22h-4.47V21h-1.764v8.572h6.234z" stroke="#FFF" stroke-width=".1" fill="#FFF"/><path d="M30 6a6 6 0 006 6h6L30 0v6z" fill="#D9C8F2"/></g></svg>