<?xml version="1.0" encoding="utf-8"?>
<!-- Generator: Adobe Illustrator 17.0.0, SVG Export Plug-In . SVG Version: 6.00 Build 0)  -->
<!DOCTYPE svg PUBLIC "-//W3C//DTD SVG 1.1//EN" "http://www.w3.org/Graphics/SVG/1.1/DTD/svg11.dtd">
<svg version="1.1" id="图层_1" xmlns="http://www.w3.org/2000/svg" xmlns:xlink="http://www.w3.org/1999/xlink" x="0px" y="0px"
     width="56px" height="64px" viewBox="0 0 56 64" enable-background="new 0 0 56 64" xml:space="preserve">
<g>
	<g>
		<path fill="#374958" d="M40,0H8C3.582,0,0,3.582,0,8v48c0,4.418,3.582,8,8,8h40c4.418,0,8-3.582,8-8V16L40,0z"/>
		<path fill="#88A0B3" d="M40,8c0,4.418,3.582,8,8,8h8L40,0V8z"/>
	</g>
</g>
<g>
	<path fill="#FFFFFF" d="M12.097,37.727V26.273h4.867c1.224,0,2.113,0.103,2.668,0.309c0.555,0.206,0.999,0.572,1.332,1.098
		c0.333,0.526,0.5,1.128,0.5,1.805c0,0.859-0.253,1.569-0.758,2.129c-0.505,0.56-1.261,0.913-2.266,1.059
		c0.5,0.292,0.913,0.612,1.238,0.961c0.325,0.349,0.764,0.969,1.316,1.859l1.398,2.234h-2.766l-1.672-2.492
		c-0.594-0.891-1-1.452-1.219-1.684c-0.219-0.231-0.451-0.391-0.695-0.477c-0.245-0.086-0.633-0.129-1.164-0.129h-0.469v4.781
		H12.097z M14.409,31.117h1.711c1.109,0,1.802-0.047,2.078-0.141c0.276-0.094,0.492-0.255,0.648-0.484
		c0.156-0.229,0.234-0.516,0.234-0.859c0-0.385-0.103-0.696-0.309-0.934c-0.206-0.237-0.496-0.387-0.871-0.449
		c-0.188-0.026-0.75-0.039-1.688-0.039h-1.805V31.117z"/>
	<path fill="#FFFFFF" d="M33.172,37.727h-2.516l-1-2.602h-4.578l-0.945,2.602H21.68l4.461-11.453h2.445L33.172,37.727z
		 M28.914,33.195l-1.578-4.25l-1.547,4.25H28.914z"/>
	<path fill="#FFFFFF" d="M33.606,37.727V26.273h4.867c1.224,0,2.113,0.103,2.668,0.309c0.555,0.206,0.999,0.572,1.332,1.098
		c0.333,0.526,0.5,1.128,0.5,1.805c0,0.859-0.253,1.569-0.758,2.129c-0.505,0.56-1.261,0.913-2.266,1.059
		c0.5,0.292,0.913,0.612,1.238,0.961c0.325,0.349,0.764,0.969,1.316,1.859l1.398,2.234h-2.766l-1.672-2.492
		c-0.594-0.891-1-1.452-1.219-1.684c-0.219-0.231-0.451-0.391-0.695-0.477c-0.245-0.086-0.633-0.129-1.164-0.129h-0.469v4.781
		H33.606z M35.919,31.117h1.711c1.109,0,1.802-0.047,2.078-0.141c0.276-0.094,0.492-0.255,0.648-0.484
		c0.156-0.229,0.234-0.516,0.234-0.859c0-0.385-0.103-0.696-0.309-0.934c-0.206-0.237-0.496-0.387-0.871-0.449
		c-0.188-0.026-0.75-0.039-1.688-0.039h-1.805V31.117z"/>
</g>
</svg>
