<?xml version="1.0" encoding="utf-8"?>
<!-- Generator: Adobe Illustrator 17.0.0, SVG Export Plug-In . SVG Version: 6.00 Build 0)  -->
<!DOCTYPE svg PUBLIC "-//W3C//DTD SVG 1.1//EN" "http://www.w3.org/Graphics/SVG/1.1/DTD/svg11.dtd">
<svg version="1.1" id="图层_1" xmlns="http://www.w3.org/2000/svg" xmlns:xlink="http://www.w3.org/1999/xlink" x="0px" y="0px"
     width="56px" height="64px" viewBox="0 0 56 64" enable-background="new 0 0 56 64" xml:space="preserve">
<g>
	<g>
		<g>
			<g>
				<path fill="#A2CB7E" d="M40,0H8C3.582,0,0,3.582,0,8v48c0,4.418,3.582,8,8,8h40c4.418,0,8-3.582,8-8V16L40,0z"/>
			</g>
			<g>
				<path fill="#EBF1C4" d="M40,8c0,4.418,3.582,8,8,8h8L40,0V8z"/>
			</g>
		</g>
	</g>
</g>
<g>
	<path fill="#FFFFFF" d="M17.425,37.977v-9.516h-3.398v-1.938h9.102v1.938h-3.391v9.516H17.425z"/>
	<path fill="#FFFFFF" d="M22.656,37.977L26.571,32l-3.547-5.477h2.703l2.297,3.68l2.25-3.68h2.68l-3.563,5.562l3.914,5.891h-2.789
		l-2.539-3.961l-2.547,3.961H22.656z"/>
	<path fill="#FFFFFF" d="M36.27,37.977v-9.516h-3.398v-1.938h9.102v1.938h-3.391v9.516H36.27z"/>
</g>
</svg>
