<?xml version="1.0" encoding="utf-8"?>
<!-- Generator: Adobe Illustrator 17.0.0, SVG Export Plug-In . SVG Version: 6.00 Build 0)  -->
<!DOCTYPE svg PUBLIC "-//W3C//DTD SVG 1.1//EN" "http://www.w3.org/Graphics/SVG/1.1/DTD/svg11.dtd">
<svg version="1.1" id="图层_1" xmlns="http://www.w3.org/2000/svg" xmlns:xlink="http://www.w3.org/1999/xlink" x="0px" y="0px"
     width="56px" height="64px" viewBox="0 0 56 64" enable-background="new 0 0 56 64" xml:space="preserve">
<g>
	<g>
		<g>
			<g>
				<path fill="#AFB8C0" d="M40,0H8C3.582,0,0,3.582,0,8v48c0,4.418,3.582,8,8,8h40c4.418,0,8-3.582,8-8V16L40,0z"/>
			</g>
			<g>
				<path fill="#CDD6DE" d="M40,8c0,4.418,3.582,8,8,8h8L40,0V8z"/>
			</g>
		</g>
	</g>
</g>
<g>
	<path fill="#FFFFFF" d="M20.394,33.25h-1.992c-0.005-0.286-0.008-0.461-0.008-0.523c0-0.646,0.106-1.177,0.32-1.594
		c0.213-0.417,0.641-0.885,1.281-1.406c0.641-0.521,1.023-0.862,1.148-1.023c0.192-0.255,0.289-0.536,0.289-0.844
		c0-0.427-0.171-0.793-0.512-1.098c-0.341-0.305-0.801-0.457-1.379-0.457c-0.558,0-1.023,0.159-1.398,0.477
		c-0.375,0.318-0.633,0.802-0.773,1.453l-2.016-0.25c0.057-0.932,0.454-1.724,1.191-2.375c0.737-0.651,1.704-0.977,2.902-0.977
		c1.26,0,2.263,0.33,3.008,0.988c0.745,0.659,1.117,1.426,1.117,2.301c0,0.484-0.137,0.943-0.41,1.375
		c-0.273,0.433-0.858,1.021-1.754,1.766c-0.464,0.386-0.751,0.695-0.863,0.93C20.434,32.227,20.383,32.646,20.394,33.25z
		 M18.402,36.203v-2.195h2.195v2.195H18.402z"/>
	<path fill="#FFFFFF" d="M23.352,39.367v-1.422h9.125v1.422H23.352z"/>
	<path fill="#FFFFFF" d="M37.466,33.25h-1.992c-0.005-0.286-0.008-0.461-0.008-0.523c0-0.646,0.106-1.177,0.32-1.594
		c0.213-0.417,0.641-0.885,1.281-1.406c0.641-0.521,1.023-0.862,1.148-1.023c0.192-0.255,0.289-0.536,0.289-0.844
		c0-0.427-0.171-0.793-0.512-1.098c-0.341-0.305-0.801-0.457-1.379-0.457c-0.558,0-1.023,0.159-1.398,0.477
		c-0.375,0.318-0.633,0.802-0.773,1.453l-2.016-0.25c0.057-0.932,0.454-1.724,1.191-2.375c0.737-0.651,1.704-0.977,2.902-0.977
		c1.26,0,2.263,0.33,3.008,0.988c0.745,0.659,1.117,1.426,1.117,2.301c0,0.484-0.137,0.943-0.41,1.375
		c-0.273,0.433-0.858,1.021-1.754,1.766c-0.464,0.386-0.751,0.695-0.863,0.93C37.506,32.227,37.455,32.646,37.466,33.25z
		 M35.473,36.203v-2.195h2.195v2.195H35.473z"/>
</g>
</svg>
