<?xml version="1.0" encoding="utf-8"?>
<!-- Generator: Adobe Illustrator 17.0.0, SVG Export Plug-In . SVG Version: 6.00 Build 0)  -->
<!DOCTYPE svg PUBLIC "-//W3C//DTD SVG 1.1//EN" "http://www.w3.org/Graphics/SVG/1.1/DTD/svg11.dtd">
<svg version="1.1" id="图层_1" xmlns="http://www.w3.org/2000/svg" xmlns:xlink="http://www.w3.org/1999/xlink" x="0px" y="0px"
     width="56px" height="64px" viewBox="0 0 56 64" enable-background="new 0 0 56 64" xml:space="preserve">
<g>
	<g>
		<g>
			<g>
				<path fill="#73964F" d="M40,0H8C3.582,0,0,3.582,0,8v48c0,4.418,3.582,8,8,8h40c4.418,0,8-3.582,8-8V16L40,0z"/>
			</g>
			<g>
				<path fill="#C3DDAC" d="M40,8c0,4.418,3.582,8,8,8h8L40,0V8z"/>
			</g>
		</g>
	</g>
</g>
<g>
	<path fill="#FFFFFF" d="M8.317,37.723l3.914-5.977L8.684,26.27h2.703l2.297,3.68l2.25-3.68h2.68l-3.562,5.563l3.914,5.891h-2.789
		l-2.539-3.961l-2.547,3.961H8.317z"/>
	<path fill="#FFFFFF" d="M19.416,37.723V26.363h2.313v9.43h5.75v1.93H19.416z"/>
	<path fill="#FFFFFF" d="M27.74,33.996l2.25-0.219c0.135,0.755,0.41,1.31,0.824,1.664c0.414,0.354,0.973,0.531,1.676,0.531
		c0.745,0,1.306-0.157,1.684-0.473c0.377-0.315,0.566-0.684,0.566-1.105c0-0.271-0.08-0.501-0.238-0.691
		c-0.159-0.19-0.437-0.355-0.832-0.496c-0.271-0.094-0.888-0.26-1.852-0.5c-1.24-0.307-2.109-0.685-2.609-1.133
		c-0.703-0.63-1.055-1.398-1.055-2.305c0-0.583,0.165-1.129,0.496-1.637c0.331-0.508,0.807-0.895,1.43-1.16
		c0.622-0.266,1.374-0.398,2.254-0.398c1.438,0,2.52,0.315,3.246,0.945c0.727,0.63,1.108,1.472,1.145,2.523l-2.313,0.102
		c-0.099-0.588-0.312-1.012-0.637-1.27c-0.326-0.258-0.814-0.387-1.465-0.387c-0.672,0-1.198,0.138-1.578,0.414
		c-0.245,0.177-0.367,0.414-0.367,0.711c0,0.271,0.114,0.503,0.344,0.695c0.292,0.245,1,0.5,2.125,0.766
		c1.125,0.266,1.957,0.541,2.496,0.824c0.539,0.284,0.961,0.672,1.266,1.164s0.457,1.101,0.457,1.824
		c0,0.656-0.183,1.271-0.547,1.844c-0.365,0.573-0.88,0.999-1.547,1.277c-0.667,0.278-1.498,0.418-2.492,0.418
		c-1.448,0-2.56-0.334-3.336-1.004C28.355,36.253,27.891,35.277,27.74,33.996z"/>
	<path fill="#FFFFFF" d="M37.034,37.723l3.914-5.977l-3.547-5.477h2.703l2.297,3.68l2.25-3.68h2.68l-3.563,5.563l3.914,5.891h-2.789
		l-2.539-3.961l-2.547,3.961H37.034z"/>
</g>
</svg>
