<svg width="42" height="48" xmlns="http://www.w3.org/2000/svg"><g fill="none"><path d="M30 0H6.125C2.742 0 0 2.686 0 6v36c0 3.314 2.742 6 6.125 6h29.75C39.258 48 42 45.314 42 42V12L30 0z" fill="#C29F57"/><path d="M17.24 29.572c.219-2.515 1.217-4.922 2.994-7.218h0v-1.272H14v1.436h4.348c-1.641 2.214-2.625 4.566-2.953 7.054h1.845zm10.88 0V28.22h-5.374l5.21-5.783V21h-6.932v1.477h4.635l-5.086 5.783v1.312h7.547z" stroke="#FFF" stroke-width=".2" fill="#FFF"/><path d="M30 6a6 6 0 006 6h6L30 0v6z" fill="#DCC9A3"/></g></svg>