<?xml version="1.0" standalone="no"?><!DOCTYPE svg PUBLIC "-//W3C//DTD SVG 1.1//EN" "http://www.w3.org/Graphics/SVG/1.1/DTD/svg11.dtd"><svg t="1628122873500" class="icon" viewBox="0 0 1024 1024" version="1.1" xmlns="http://www.w3.org/2000/svg" p-id="3146" xmlns:xlink="http://www.w3.org/1999/xlink" width="200" height="200"><defs><style type="text/css"></style></defs><path d="M923.136 969.557333H193.024v-909.653333h521.386667l208.725333 207.701333z" fill="#7CCDFF" p-id="3147"></path><path d="M912.896 253.952l2.56 671.914667c0 15.530667-12.458667 27.989333-27.989333 27.989333H237.909333c-15.530667 0-27.989333-12.458667-27.989333-27.989333V96.938667c0-15.530667 12.458667-27.989333 27.989333-27.989334l493.397334-1.024-38.912-39.936H239.274667c-36.352 0-65.706667 29.354667-65.706667 65.706667v835.584c0 36.352 29.354667 65.706667 65.706667 65.706667h646.826666c36.352 0 65.706667-29.354667 65.706667-65.706667V293.888l-38.912-39.936z" fill="#4191FB" p-id="3148"></path><path d="M692.394667 222.72c0 39.424 31.914667 71.338667 71.338666 71.338667h188.245334L692.394667 27.989333v194.730667z" fill="#C7E2FF" p-id="3149"></path><path d="M557.568 482.304H158.72c-50.346667 0-91.136-40.789333-91.136-91.136v-60.245333c0-50.346667 40.789333-91.136 91.136-91.136h398.848c50.346667 0 91.136 40.789333 91.136 91.136v60.245333c0 50.346667-40.789333 91.136-91.136 91.136z" fill="#4191FB" p-id="3150"></path><path d="M115.541333 287.573333h80.042667c17.408 0 30.549333 4.096 39.082667 12.458667 8.704 8.362667 12.970667 20.138667 12.970666 35.328 0 15.701333-4.778667 27.989333-14.165333 36.864-9.386667 8.874667-23.893333 13.312-43.349333 13.312H163.84v57.856H115.541333v-155.818667zM163.84 353.962667h11.776c9.216 0 15.872-1.536 19.626667-4.778667 3.754667-3.242667 5.632-7.338667 5.632-12.458667 0-4.949333-1.706667-9.045333-4.949334-12.458666s-9.386667-5.12-18.432-5.12h-13.653333v34.816zM273.237333 287.573333h44.885334l58.709333 86.186667v-86.186667h45.397333v155.818667h-45.397333l-58.368-85.504v85.504h-45.226667v-155.818667zM532.48 386.901333v-32.426666h74.410667v66.389333c-14.165333 9.728-26.794667 16.384-37.717334 19.797333-10.922667 3.584-23.893333 5.290667-38.912 5.290667-18.432 0-33.621333-3.072-45.226666-9.386667-11.605333-6.314667-20.650667-15.701333-27.136-28.16s-9.557333-26.794667-9.557334-42.837333c0-17.066667 3.584-31.744 10.581334-44.373333s17.237333-22.186667 30.890666-28.672c10.581333-4.949333 24.746667-7.509333 42.666667-7.509334 17.237333 0 30.037333 1.536 38.570667 4.608s15.701333 8.021333 21.162666 14.506667c5.632 6.485333 9.898667 14.848 12.629334 24.917333l-46.421334 8.362667c-1.877333-5.802667-5.12-10.410667-9.728-13.482667-4.608-3.072-10.410667-4.608-17.408-4.608-10.581333 0-18.944 3.584-25.258666 10.922667s-9.386667 18.944-9.386667 34.816c0 16.896 3.242667 28.842667 9.557333 36.181333 6.314667 7.168 15.189333 10.752 26.453334 10.752 5.461333 0 10.581333-0.853333 15.36-2.389333 4.949333-1.536 10.410667-4.266667 16.725333-8.021333v-14.677334H532.48z" fill="#FFFFFF" p-id="3151"></path><path d="M315.733333 732.16m-56.490666 0a56.490667 56.490667 0 1 0 112.981333 0 56.490667 56.490667 0 1 0-112.981333 0Z" fill="#4191FB" p-id="3152"></path><path d="M517.12 631.466667m-56.490667 0a56.490667 56.490667 0 1 0 112.981334 0 56.490667 56.490667 0 1 0-112.981334 0Z" fill="#4191FB" p-id="3153"></path><path d="M751.274667 619.178667m-56.490667 0a56.490667 56.490667 0 1 0 112.981333 0 56.490667 56.490667 0 1 0-112.981333 0Z" fill="#4191FB" p-id="3154"></path><path d="M350.037333 878.592s-9.898667-62.293333-24.576-103.082667c-14.677333-40.96 0-43.349333 0-43.349333s80.213333 106.496 148.992 68.778667 37.717333-147.285333 37.717334-147.285334l24.576-8.192s30.208 103.082667 104.789333 101.546667 99.84-101.546667 99.84-101.546667l29.525333-13.994666 68.778667 123.562666v123.562667H350.037333z" fill="#4191FB" p-id="3155"></path></svg>